<?xml version="1.0" standalone="no"?>
<!DOCTYPE svg PUBLIC "-//W3C//DTD SVG 20010904//EN"
 "http://www.w3.org/TR/2001/REC-SVG-20010904/DTD/svg10.dtd">
<svg version="1.0" xmlns="http://www.w3.org/2000/svg"
 width="164.000000pt" height="164.000000pt" viewBox="0 0 164.000000 164.000000"
 preserveAspectRatio="xMidYMid meet">

<g transform="translate(0.000000,164.000000) scale(0.100000,-0.100000)"
fill="#000000" stroke="none">
<path d="M1099 1471 c166 -97 274 -220 306 -352 12 -49 16 -99 13 -180 -3 -99
-2 -108 10 -79 13 33 18 193 7 245 l-6 30 18 -30 c29 -48 25 -227 -5 -322 -25
-75 -55 -118 -77 -109 -13 4 -36 -22 -60 -69 -13 -26 -114 -84 -157 -91 -35
-6 -133 31 -156 59 -15 18 -6 49 52 167 25 52 50 119 56 149 19 101 -21 175
-115 209 -27 9 -50 22 -50 27 0 6 21 15 47 22 53 13 104 38 55 27 -16 -4 -46
0 -70 9 -110 40 -258 56 -279 30 -9 -12 -10 -15 0 -9 7 4 12 2 12 -4 0 -6 5
-8 10 -5 6 4 8 11 5 16 -4 5 -3 9 0 9 10 0 65 -30 65 -35 0 -3 -25 -5 -55 -5
-42 0 -55 3 -55 15 0 8 -7 15 -15 15 -18 0 -18 -1 0 -36 l15 -29 -55 -7 c-92
-12 -126 -53 -89 -106 l16 -23 23 25 c59 64 186 34 191 -45 1 -18 7 -35 13
-37 15 -5 14 -29 -3 -39 -16 -10 -36 -46 -36 -67 0 -9 8 -16 19 -16 27 0 47
-26 32 -43 -12 -16 -7 -152 7 -170 5 -7 12 -25 16 -42 7 -28 6 -29 -11 -14
-37 33 -46 33 -30 3 18 -36 39 -55 97 -89 31 -18 37 -25 20 -21 -14 3 -45 8
-70 12 l-45 7 25 -20 c14 -11 48 -32 75 -47 l50 -26 -75 6 c-88 7 -86 3 20
-55 41 -22 71 -41 67 -41 -4 0 -40 7 -78 16 -39 9 -73 13 -76 10 -3 -3 18 -20
46 -37 57 -36 60 -47 7 -29 -60 19 -65 5 -8 -24 28 -14 52 -28 52 -31 0 -9
-109 29 -179 62 -97 46 -182 128 -207 200 -13 37 -26 56 -44 63 -33 15 -118
117 -152 182 -73 145 -52 367 50 528 46 72 160 185 242 239 72 48 51 46 -55
-4 -97 -46 -144 -83 -209 -162 -66 -83 -111 -169 -131 -255 -17 -72 -21 -253
-5 -243 6 3 10 20 10 38 0 47 15 21 35 -61 19 -80 68 -164 133 -226 l40 -38
-28 -42 c-16 -22 -42 -57 -59 -76 l-31 -35 -36 40 c-81 91 -154 259 -154 357
0 32 16 37 36 11 12 -16 13 -12 14 32 0 28 2 68 5 90 l5 40 -15 -30 -15 -30 6
45 c8 58 32 156 49 198 8 17 12 32 9 32 -9 0 -74 -144 -80 -177 -3 -18 -10
-31 -14 -28 -15 9 -22 -34 -21 -124 0 -192 73 -365 210 -502 144 -143 329
-213 566 -214 98 0 134 5 195 24 215 67 374 201 474 399 89 177 91 421 5 628
-36 86 -48 94 -20 13 10 -30 22 -67 25 -84 10 -43 -9 -20 -24 30 -25 78 -61
135 -125 196 -85 82 -143 123 -239 170 -114 56 -139 49 -37 -10z m-281 -752
c-3 -8 -7 -3 -11 10 -4 17 -3 21 5 13 5 -5 8 -16 6 -23z m22 -100 c0 -11 -4
-17 -10 -14 -5 3 -10 13 -10 21 0 8 5 14 10 14 6 0 10 -9 10 -21z"/>
</g>
</svg>
